<svg width="400" height="368" viewBox="0 0 400 368" fill="none" xmlns="http://www.w3.org/2000/svg">
<path d="M76.6987 70.4359C65.653 51.3042 72.208 26.8406 91.3397 15.7949L108.66 5.79492C127.792 -5.25077 152.256 1.30423 163.301 20.4359L323.301 297.564C334.347 316.696 327.792 341.159 308.66 352.205L291.34 362.205C272.208 373.251 247.744 366.696 236.699 347.564L76.6987 70.4359Z" fill="black"/>
<path d="M40 234C17.9086 234 1.15015e-06 216.091 7.23815e-07 194L0 174C-4.26338e-07 151.909 17.9086 134 40 134H360C382.091 134 400 151.909 400 174V194C400 216.091 382.091 234 360 234H40Z" fill="black"/>
<path d="M163.301 347.564C152.256 366.696 127.792 373.251 108.66 362.205L91.3397 352.205C72.208 341.159 65.653 316.696 76.6987 297.564L236.699 20.4359C247.744 1.30424 272.208 -5.25077 291.34 5.79492L308.66 15.7949C327.792 26.8406 334.347 51.3042 323.301 70.4359L163.301 347.564Z" fill="black"/>
</svg>
