<svg width="400" height="400" viewBox="0 0 400 400" fill="none" xmlns="http://www.w3.org/2000/svg">
<path fill-rule="evenodd" clip-rule="evenodd" d="M125 360C125 382.091 142.909 400 165 400L185.5 400C206.211 400 223 383.211 223 362.5V362.5C223 341.789 239.789 325 260.5 325V325C281.211 325 298 341.789 298 362.5V362.5C298 383.211 314.789 400 335.5 400H360C382.091 400 400 382.091 400 360V233C400 210.909 382.091 193 360 193H291C268.909 193 251 175.091 251 153L251 40C251 17.9086 233.091 0 211 0L40 0C17.9086 0 0 17.9086 0 40L0 235C0 257.091 17.9086 275 40 275H85C107.091 275 125 292.909 125 315V360ZM49 82C49 93.0457 57.9543 102 69 102V102C80.0457 102 89 93.0457 89 82V82C89 70.9543 80.0457 62 69 62V62C57.9543 62 49 70.9543 49 82V82ZM179 84C179 100.569 165.569 114 149 114V114C132.431 114 119 100.569 119 84V84C119 67.4315 132.431 54 149 54V54C165.569 54 179 67.4315 179 84V84Z" fill="black"/>
</svg>
